<svg width="150" height="22" viewBox="0 0 150 22" fill="none" xmlns="http://www.w3.org/2000/svg">
<path d="M6.94 21.3C9.9 21.3 12.26 19.4 12.26 16.18C12.26 12.76 10.22 11.68 6.8 8.78C5.06 7.28 3.38 6 3.38 3.66C3.38 2.42 4.2 1.36 5.98 1.36C8.94 1.36 10.88 4.48 10.84 7.32V8.04H11.42V1H10.84C10.84 1.88 10.64 2.42 10.14 2.42C9.54 2.42 8.68 0.719999 5.82 0.719999C2.98 0.719999 1.02 2.36 1.02 5.04C1.02 7.5 2.28 8.98 5.22 11.24C7.7 13.16 9.88 14.84 9.94 17.3C9.98 19.16 8.76 20.64 7.02 20.64C6.34 20.64 5.62 20.54 4.96 20.18C2.84 19 1.42 16.16 1.42 13.24V12.48H0.86V21H1.42C1.42 19.78 1.94 19.62 2.26 19.62C3.04 19.62 4.2 21.3 6.94 21.3ZM19.8548 21V20.34H18.2548C18.1348 20.34 18.0948 20.3 18.0948 20.2V11.02C18.0948 10.98 18.1348 10.94 18.1748 10.94H24.6148C24.6548 10.94 24.6948 10.98 24.6948 11.02V20.2C24.6948 20.3 24.6548 20.34 24.5748 20.34H22.9348V21H29.2748V20.34H27.4748C27.3548 20.34 27.3148 20.3 27.3148 20.2V1.78C27.3148 1.68 27.3548 1.64 27.4748 1.64H29.2748V1H22.9348V1.64H24.5748C24.6548 1.64 24.6948 1.68 24.6948 1.78V10.22C24.6948 10.26 24.6548 10.3 24.6148 10.3H18.1748C18.1348 10.3 18.0948 10.26 18.0948 10.22V1.78C18.0948 1.68 18.1348 1.64 18.2548 1.64H19.8548V1H13.5148V1.64H15.3548C15.4348 1.64 15.4748 1.68 15.4748 1.78V20.2C15.4748 20.3 15.4348 20.34 15.3548 20.34H13.5148V21H19.8548ZM37.2247 21.3C41.3247 21.3 43.8847 17.26 43.8847 10.98C43.8847 4.76 41.3247 0.679999 37.2247 0.679999C33.1847 0.679999 30.6047 4.76 30.6047 10.98C30.6047 17.26 33.1847 21.3 37.2247 21.3ZM37.2247 20.72C34.1647 20.72 33.5647 18.68 33.5647 10.98C33.5647 3.28 34.1647 1.26 37.2247 1.26C40.2847 1.26 40.8847 3.28 40.8847 10.98C40.8847 18.68 40.2847 20.72 37.2247 20.72ZM52.2341 21V20.34H50.1941C50.0741 20.34 50.0341 20.3 50.0341 20.2V12.94C50.6741 13.18 51.5141 13.38 52.5541 13.38C56.2341 13.38 58.7941 10.86 58.7941 7.28C58.7941 3.84 56.4741 1 52.2341 1H45.2141V1.64H47.2741C47.3941 1.64 47.4341 1.68 47.4341 1.78V20.2C47.4341 20.3 47.3941 20.34 47.2741 20.34H45.2141V21H52.2341ZM52.6341 12.84C51.5341 12.84 50.7341 12.56 50.0341 12.18V1.78C50.0341 1.68 50.0741 1.64 50.1941 1.64H52.2341C54.4341 1.64 56.2341 3.64 56.2341 7.28C56.2341 11.1 54.7341 12.84 52.6341 12.84ZM70.2506 21C74.5306 21 76.7706 19.28 76.7706 15.84C76.7706 13.44 75.4506 10.96 71.0906 10.44C74.7706 10.08 76.0106 7.96 76.0106 5.84C76.0106 2.76 74.1306 1 69.8106 1H63.6906V1.64H65.4906C65.6106 1.64 65.6506 1.68 65.6506 1.78V20.2C65.6506 20.3 65.6106 20.34 65.4906 20.34H63.6906V21H70.2506ZM68.3706 10.24C68.2506 10.24 68.2106 10.2 68.2106 10.1V1.78C68.2106 1.68 68.2506 1.64 68.3706 1.64H69.4906C72.2906 1.56 73.4506 3.6 73.4506 5.88C73.4506 8.2 72.2906 10.26 69.4906 10.24H68.3706ZM68.3706 20.34C68.2506 20.34 68.2106 20.3 68.2106 20.2V11.02C68.2106 10.92 68.2506 10.88 68.3706 10.88H69.4906C72.6106 10.86 73.8906 12.96 73.8906 15.84C73.8906 18.14 72.7706 20.38 70.1306 20.34H68.3706ZM81.1714 21V20.34H79.4914C79.3314 20.34 79.3514 20.3 79.4914 19.72L80.5514 15.7C80.5914 15.54 80.6714 15.5 80.7714 15.5H85.6914L85.7114 15.56L87.0714 20.18C87.0914 20.28 87.0914 20.34 86.9514 20.34H85.0914V21H92.1514V20.34H90.1514C90.0714 20.34 90.0114 20.3 89.9914 20.22L84.0714 0.499998H83.7714L78.7914 19.72C78.6314 20.34 78.6514 20.34 78.4914 20.34H76.9914V21H81.1714ZM80.9514 14.94C80.6514 14.94 80.6914 14.92 80.7714 14.64L83.0114 5.8L85.5514 14.86L85.5714 14.94H80.9514ZM105.454 21V11.18H104.874V11.92C104.874 18.18 103.034 20.26 101.634 20.26H96.9144C96.8344 20.26 96.8344 20.22 96.8344 20.18L105.614 1H93.5544V10.84H94.1144V10.12C94.1144 3.48 96.0144 1.74 97.3944 1.74H102.314C102.394 1.74 102.394 1.78 102.394 1.82L93.6544 21H105.454ZM111.132 21V20.34H109.452C109.292 20.34 109.312 20.3 109.452 19.72L110.512 15.7C110.552 15.54 110.632 15.5 110.732 15.5H115.652L115.672 15.56L117.032 20.18C117.052 20.28 117.052 20.34 116.912 20.34H115.052V21H122.112V20.34H120.112C120.032 20.34 119.972 20.3 119.952 20.22L114.032 0.499998H113.732L108.752 19.72C108.592 20.34 108.612 20.34 108.452 20.34H106.952V21H111.132ZM110.912 14.94C110.612 14.94 110.652 14.92 110.732 14.64L112.972 5.8L115.512 14.86L115.532 14.94H110.912ZM124.472 21V20.34H122.792C122.632 20.34 122.652 20.3 122.792 19.72L123.852 15.7C123.892 15.54 123.972 15.5 124.072 15.5H128.992L129.012 15.56L130.372 20.18C130.392 20.28 130.392 20.34 130.252 20.34H128.392V21H135.452V20.34H133.452C133.372 20.34 133.312 20.3 133.292 20.22L127.372 0.499998H127.072L122.092 19.72C121.932 20.34 121.952 20.34 121.792 20.34H120.292V21H124.472ZM124.252 14.94C123.952 14.94 123.992 14.92 124.072 14.64L126.312 5.8L128.852 14.86L128.872 14.94H124.252ZM147.579 21.3C149.979 21.3 149.979 19.34 149.979 17.98V16.7H149.339V18.02C149.379 19.32 149.079 20.44 148.179 20.44C147.399 20.44 147.219 20.1 147.219 18.3V14C147.219 11.84 145.499 10.96 142.839 10.64C146.139 10.26 147.379 8.22 147.379 5.88C147.379 2.4 145.759 1 141.659 1H134.999V1.64H136.799C136.919 1.64 136.959 1.68 136.959 1.78V20.24C136.959 20.32 136.919 20.34 136.799 20.34H134.999V21H141.219V20.34H139.599C139.499 20.34 139.459 20.3 139.459 20.2V11.2C139.459 11.1 139.499 11.06 139.619 11.06H141.099C142.579 11.02 144.739 11.68 144.739 14V18.3C144.739 20.14 145.759 21.3 147.579 21.3ZM139.619 10.42C139.499 10.42 139.459 10.38 139.459 10.28V1.78C139.459 1.68 139.499 1.64 139.619 1.64H141.299C143.939 1.52 144.739 3.6 144.739 5.88C144.739 8.2 143.939 10.46 141.299 10.42H139.619Z" fill="black"/>
</svg>
